# xmcd CD database file
#
# Track frame offsets:
#	150
#	59932
#	144900
#	192815
#
# Disc length: 3370 seconds
#
# Revision: 0
# Processed by: cddbd v1.5.2PL0 Copyright (c) Steve Scherf et al.
# Submitted via: CDex 1.70beta2
#
DISCID=380d2804
DTITLE=Shoji Aketagawa - Aketa meets Tkeda-I didn't know about you
DYEAR=1987
DGENRE=Jazz
TTITLE0=Electric Aketa
TTITLE1=I did't know about you
TTITLE2=Airegin baybridge road
TTITLE3=Reflections
EXTD=YEAR: 1987
EXTT0=
EXTT1=
EXTT2=
EXTT3=
PLAYORDER=
